<?xml version="1.0" encoding="utf-8"?>
<!-- Generator: Adobe Illustrator 23.1.1, SVG Export Plug-In . SVG Version: 6.00 Build 0)  -->
<svg version="1.1" id="Layer_1" xmlns="http://www.w3.org/2000/svg" xmlns:xlink="http://www.w3.org/1999/xlink" x="0px" y="0px"
	 viewBox="0 0 709 506" style="enable-background:new 0 0 709 506;" xml:space="preserve">
<style type="text/css">
	.st0{filter:url(#a);}
	.st1{fill-rule:evenodd;clip-rule:evenodd;}
	.st2{fill-rule:evenodd;clip-rule:evenodd;fill:#FFFFFF;}
	.st3{filter:url(#c);}
	.st4{fill-rule:evenodd;clip-rule:evenodd;fill:#00252E;}
	.st5{fill-rule:evenodd;clip-rule:evenodd;fill:#E1E8EE;}
	.st6{fill-rule:evenodd;clip-rule:evenodd;fill:#D8D8D8;}
	.st7{fill-rule:evenodd;clip-rule:evenodd;fill:url(#SVGID_1_);}
	.st8{fill-rule:evenodd;clip-rule:evenodd;fill:#A7B9C8;}
	.st9{fill-rule:evenodd;clip-rule:evenodd;fill:url(#SVGID_2_);}
	.st10{fill-rule:evenodd;clip-rule:evenodd;fill:url(#SVGID_3_);}
	.st11{filter:url(#h);}
	.st12{filter:url(#j);}
	.st13{fill-rule:evenodd;clip-rule:evenodd;fill:url(#SVGID_4_);}
	.st14{fill-rule:evenodd;clip-rule:evenodd;fill:url(#SVGID_5_);}
	.st15{fill-rule:evenodd;clip-rule:evenodd;fill:url(#SVGID_6_);}
	.st16{fill-rule:evenodd;clip-rule:evenodd;fill:url(#SVGID_7_);}
	.st17{fill-rule:evenodd;clip-rule:evenodd;fill:url(#SVGID_8_);}
	.st18{fill-rule:evenodd;clip-rule:evenodd;fill:url(#SVGID_9_);}
	.st19{fill-rule:evenodd;clip-rule:evenodd;fill:url(#SVGID_10_);}
	.st20{fill-rule:evenodd;clip-rule:evenodd;fill:url(#SVGID_11_);}
</style>
<filter  filterUnits="objectBoundingBox" height="148.1%" id="j" width="108.2%" x="-4.1%" y="-24.1%">
	<feOffset  in="SourceAlpha" result="shadowOffsetOuter1"></feOffset>
	<feGaussianBlur  in="shadowOffsetOuter1" result="shadowBlurOuter1" stdDeviation="3"></feGaussianBlur>
	<feColorMatrix  in="shadowBlurOuter1" values="0 0 0 0 0 0 0 0 0 0.145098039 0 0 0 0 0.180392157 0 0 0 0.181838768 0">
		</feColorMatrix>
</filter>
<filter  filterUnits="objectBoundingBox" height="105.1%" id="h" width="108.2%" x="-4.1%" y="-2.6%">
	<feOffset  in="SourceAlpha" result="shadowOffsetOuter1"></feOffset>
	<feGaussianBlur  in="shadowOffsetOuter1" result="shadowBlurOuter1" stdDeviation="3"></feGaussianBlur>
	<feColorMatrix  in="shadowBlurOuter1" values="0 0 0 0 0 0 0 0 0 0.145098039 0 0 0 0 0.180392157 0 0 0 0.181838768 0">
		</feColorMatrix>
</filter>
<filter  filterUnits="objectBoundingBox" height="147.9%" id="c" width="103.2%" x="-1.6%" y="-24%">
	<feOffset  in="SourceAlpha" result="shadowOffsetOuter1"></feOffset>
	<feGaussianBlur  in="shadowOffsetOuter1" result="shadowBlurOuter1" stdDeviation="3.5"></feGaussianBlur>
	<feColorMatrix  in="shadowBlurOuter1" values="0 0 0 0 0 0 0 0 0 0.145098039 0 0 0 0 0.180392157 0 0 0 0.181838768 0">
		</feColorMatrix>
</filter>
<filter  filterUnits="objectBoundingBox" height="105.1%" id="a" width="103.2%" x="-1.6%" y="-2.6%">
	<feOffset  in="SourceAlpha" result="shadowOffsetOuter1"></feOffset>
	<feGaussianBlur  in="shadowOffsetOuter1" result="shadowBlurOuter1" stdDeviation="3.5"></feGaussianBlur>
	<feColorMatrix  in="shadowBlurOuter1" values="0 0 0 0 0 0 0 0 0 0.145098039 0 0 0 0 0.180392157 0 0 0 0.181838768 0">
		</feColorMatrix>
</filter>
<g>
	<g transform="translate(7 7)">
		<g class="st0">
			<path id="b_1_" class="st1" d="M88.2,0h561.4c6.7,0,12.2,5.6,12.2,12.4v347.1c0,6.8-5.5,12.4-12.2,12.4H88.2
				c-6.7,0-12.2-5.6-12.2-12.4V12.4C76,5.6,81.5,0,88.2,0z"/>
		</g>
		<g>
			<path class="st2" d="M88.2,0h561.4c6.7,0,12.2,5.6,12.2,12.4v347.1c0,6.8-5.5,12.4-12.2,12.4H88.2c-6.7,0-12.2-5.6-12.2-12.4
				V12.4C76,5.6,81.5,0,88.2,0z"/>
		</g>
		<g class="st3">
			<path id="d_1_" class="st1" d="M88.2,0h561.4c6.7,0,12.2,5.6,12.2,12.4v27.3H76V12.4C76,5.6,81.5,0,88.2,0z"/>
		</g>
		<g>
			<path class="st4" d="M88.2,0h561.4c6.7,0,12.2,5.6,12.2,12.4v27.3H76V12.4C76,5.6,81.5,0,88.2,0z"/>
		</g>
		<path class="st5" d="M123,12.4h115.9c1.7,0,3.1,1.4,3.1,3.1v8.7c0,1.7-1.4,3.1-3.1,3.1H123c-1.7,0-3.1-1.4-3.1-3.1v-8.7
			C119.9,13.8,121.3,12.4,123,12.4z"/>
		<g transform="translate(591.874 15.064)">
			<path class="st6" d="M12.6-1.4h17.1c0.7,0,1.2,0.6,1.2,1.2v0c0,0.7-0.5,1.2-1.2,1.2H12.6c-0.7,0-1.2-0.6-1.2-1.2v0
				C11.4-0.9,11.9-1.4,12.6-1.4z"/>
			<path class="st6" d="M12.6,3.5h17.1c0.7,0,1.2,0.6,1.2,1.2v0c0,0.7-0.5,1.2-1.2,1.2H12.6c-0.7,0-1.2-0.6-1.2-1.2v0
				C11.4,4.1,11.9,3.5,12.6,3.5z"/>
			<path class="st6" d="M12.6,8.5h17.1c0.7,0,1.2,0.6,1.2,1.2v0c0,0.7-0.5,1.2-1.2,1.2H12.6c-0.7,0-1.2-0.6-1.2-1.2v0
				C11.4,9,11.9,8.5,12.6,8.5z"/>
		</g>
		<g transform="translate(49.323 94.492)">
			
				<linearGradient id="SVGID_1_" gradientUnits="userSpaceOnUse" x1="-335.7578" y1="660.9332" x2="-335.2053" y2="659.6531" gradientTransform="matrix(65.764 0 0 -65.734 22161.7656 43422.7695)">
				<stop  offset="0" style="stop-color:#FAD961"/>
				<stop  offset="1" style="stop-color:#FF52C1"/>
			</linearGradient>
			<ellipse class="st7" cx="99.9" cy="20.8" rx="29.3" ry="29.8"/>
			<g transform="translate(104.126 8.217)">
				<path class="st5" d="M61.1-9.7h66.5c1,0,1.8,0.8,1.8,1.9v6.2c0,1-0.8,1.9-1.8,1.9H61.1c-1,0-1.8-0.8-1.8-1.9v-6.2
					C59.2-8.9,60.1-9.7,61.1-9.7z"/>
				<path class="st5" d="M61.1,10.1h240.4c1,0,1.8,0.8,1.8,1.9v1.2c0,1-0.8,1.9-1.8,1.9H61.1c-1,0-1.8-0.8-1.8-1.9V12
					C59.2,10.9,60.1,10.1,61.1,10.1z"/>
				<path class="st5" d="M61.1,20h220.1c1,0,1.8,0.8,1.8,1.9v1.2c0,1-0.8,1.9-1.8,1.9H61.1c-1,0-1.8-0.8-1.8-1.9v-1.2
					C59.2,20.8,60.1,20,61.1,20z"/>
				<path class="st5" d="M61.1,29.9h199.8c1,0,1.8,0.8,1.8,1.9V33c0,1-0.8,1.9-1.8,1.9H61.1c-1,0-1.8-0.8-1.8-1.9v-1.2
					C59.2,30.8,60.1,29.9,61.1,29.9z"/>
			</g>
			<g transform="translate(411.024 24.65)">
				<ellipse class="st8" cx="33.1" cy="-3.9" rx="7.3" ry="7.4"/>
				<ellipse class="st8" cx="72.1" cy="-3.9" rx="7.3" ry="7.4"/>
				<ellipse class="st8" cx="52.6" cy="-3.9" rx="7.3" ry="7.4"/>
				<ellipse class="st8" cx="91.6" cy="-3.9" rx="7.3" ry="7.4"/>
				<ellipse class="st8" cx="111.2" cy="-3.9" rx="7.3" ry="7.4"/>
			</g>
		</g>
		<g transform="translate(49.323 187.614)">
			
				<linearGradient id="SVGID_2_" gradientUnits="userSpaceOnUse" x1="-335.1097" y1="567.4881" x2="-335.1097" y2="566.5829" gradientTransform="matrix(61.654 0 0 -61.626 20758.9277 34954.2344)">
				<stop  offset="0" style="stop-color:#00C7FA"/>
				<stop  offset="1" style="stop-color:#007DFA"/>
			</linearGradient>
			<ellipse class="st9" cx="98.1" cy="10.1" rx="27.5" ry="27.9"/>
			<g transform="translate(102.07 6.162)">
				<path class="st5" d="M61.3-18.4h66.5c1,0,1.8,0.8,1.8,1.9v6.2c0,1-0.8,1.9-1.8,1.9H61.3c-1,0-1.8-0.8-1.8-1.9v-6.2
					C59.5-17.5,60.3-18.4,61.3-18.4z"/>
				<path class="st5" d="M61.3,1.5h240.4c1,0,1.8,0.8,1.8,1.9v1.2c0,1-0.8,1.9-1.8,1.9H61.3c-1,0-1.8-0.8-1.8-1.9V3.3
					C59.5,2.3,60.3,1.5,61.3,1.5z"/>
				<path class="st5" d="M61.3,11.4h220.1c1,0,1.8,0.8,1.8,1.9v1.2c0,1-0.8,1.9-1.8,1.9H61.3c-1,0-1.8-0.8-1.8-1.9v-1.2
					C59.5,12.2,60.3,11.4,61.3,11.4z"/>
				<path class="st5" d="M61.3,21.3H261c1,0,1.8,0.8,1.8,1.9v1.2c0,1-0.8,1.9-1.8,1.9H61.3c-1,0-1.8-0.8-1.8-1.9v-1.2
					C59.5,22.1,60.3,21.3,61.3,21.3z"/>
			</g>
			<g transform="translate(408.969 22.596)">
				<ellipse class="st8" cx="33.3" cy="-12.5" rx="7.3" ry="7.4"/>
				<ellipse class="st8" cx="72.3" cy="-12.5" rx="7.3" ry="7.4"/>
				<ellipse class="st8" cx="52.8" cy="-12.5" rx="7.3" ry="7.4"/>
			</g>
		</g>
		<g transform="translate(49.323 285.53)">
			
				<linearGradient id="SVGID_3_" gradientUnits="userSpaceOnUse" x1="-335.3443" y1="469.6963" x2="-334.7921" y2="468.693" gradientTransform="matrix(61.654 0 0 -61.626 20758.9277 28920.0625)">
				<stop  offset="0" style="stop-color:#FF52C1"/>
				<stop  offset="1" style="stop-color:#9952FF"/>
			</linearGradient>
			<ellipse class="st10" cx="98.1" cy="0.8" rx="27.5" ry="27.9"/>
			<g transform="translate(102.07 6.162)">
				<path class="st5" d="M61.3-27.7h66.5c1,0,1.8,0.8,1.8,1.9v6.2c0,1-0.8,1.9-1.8,1.9H61.3c-1,0-1.8-0.8-1.8-1.9v-6.2
					C59.5-26.8,60.3-27.7,61.3-27.7z"/>
				<path class="st5" d="M61.3-7.8h240.4c1,0,1.8,0.8,1.8,1.9v1.2c0,1-0.8,1.9-1.8,1.9H61.3c-1,0-1.8-0.8-1.8-1.9V-6
					C59.5-7,60.3-7.8,61.3-7.8z"/>
				<path class="st5" d="M61.3,2.1h220.1c1,0,1.8,0.8,1.8,1.9v1.2c0,1-0.8,1.9-1.8,1.9H61.3c-1,0-1.8-0.8-1.8-1.9V4
					C59.5,2.9,60.3,2.1,61.3,2.1z"/>
				<path class="st5" d="M61.3,12H261c1,0,1.8,0.8,1.8,1.9v1.2c0,1-0.8,1.9-1.8,1.9H61.3c-1,0-1.8-0.8-1.8-1.9v-1.2
					C59.5,12.8,60.3,12,61.3,12z"/>
			</g>
			<g transform="translate(408.969 22.596)">
				<ellipse class="st8" cx="33.3" cy="-21.8" rx="7.3" ry="7.4"/>
				<ellipse class="st8" cx="72.3" cy="-21.8" rx="7.3" ry="7.4"/>
				<ellipse class="st8" cx="52.8" cy="-21.8" rx="7.3" ry="7.4"/>
				<ellipse class="st8" cx="91.9" cy="-21.8" rx="7.3" ry="7.4"/>
			</g>
		</g>
	</g>
	<g transform="translate(483.787 149.422)">
		<g class="st11">
			<path id="i_1_" class="st1" d="M34.4-13.5h174.4c5.8,0,10.4,4.7,10.4,10.6v296.2c0,5.8-4.7,10.6-10.4,10.6H34.4
				c-5.8,0-10.4-4.7-10.4-10.6V-2.9C23.9-8.8,28.6-13.5,34.4-13.5z"/>
		</g>
		<g>
			<path class="st2" d="M34.4-13.5h174.4c5.8,0,10.4,4.7,10.4,10.6v296.2c0,5.8-4.7,10.6-10.4,10.6H34.4c-5.8,0-10.4-4.7-10.4-10.6
				V-2.9C23.9-8.8,28.6-13.5,34.4-13.5z"/>
		</g>
	</g>
	<g transform="translate(483.787 149.422)">
		<g class="st12">
			<path id="k_1_" class="st1" d="M34.4-13.5h174.4c5.8,0,10.4,4.7,10.4,10.6v23.3H23.9V-2.9C23.9-8.8,28.6-13.5,34.4-13.5z"/>
		</g>
		<g>
			<path class="st4" d="M34.4-13.5h174.4c5.8,0,10.4,4.7,10.4,10.6v23.3H23.9V-2.9C23.9-8.8,28.6-13.5,34.4-13.5z"/>
		</g>
	</g>
	<g transform="translate(505.8 162.277)">
		<path class="st5" d="M24.1-14.7h58.3c1.4,0,2.6,1.2,2.6,2.6v7.4C85-3.2,83.8-2,82.4-2H24.1c-1.4,0-2.6-1.2-2.6-2.6v-7.4
			C21.5-13.5,22.7-14.7,24.1-14.7z"/>
		<g transform="translate(155.111 1.169)">
			<path class="st6" d="M5.6-14.8h14.6c0.6,0,1,0.5,1,1.1l0,0c0,0.6-0.5,1.1-1,1.1H5.6c-0.6,0-1-0.5-1-1.1l0,0
				C4.6-14.4,5.1-14.8,5.6-14.8z"/>
			<path class="st6" d="M5.6-10.6h14.6c0.6,0,1,0.5,1,1.1l0,0c0,0.6-0.5,1.1-1,1.1H5.6c-0.6,0-1-0.5-1-1.1l0,0
				C4.6-10.1,5.1-10.6,5.6-10.6z"/>
			<path class="st6" d="M5.6-6.4h14.6c0.6,0,1,0.5,1,1.1l0,0c0,0.6-0.5,1.1-1,1.1H5.6c-0.6,0-1-0.5-1-1.1l0,0
				C4.6-5.9,5.1-6.4,5.6-6.4z"/>
		</g>
	</g>
	<g transform="translate(505.709 223.372)">
		
			<linearGradient id="SVGID_4_" gradientUnits="userSpaceOnUse" x1="-775.6357" y1="531.2808" x2="-775.0833" y2="530.0007" gradientTransform="matrix(20.552 0 0 -20.542 15965.6514 10888.6641)">
			<stop  offset="0" style="stop-color:#FAD961"/>
			<stop  offset="1" style="stop-color:#FF52C1"/>
		</linearGradient>
		<ellipse class="st13" cx="30.7" cy="-11.2" rx="9.2" ry="9.3"/>
		<g transform="translate(31.512 2.054)">
			<path class="st5" d="M18.7-20.7h34c0.3,0,0.6,0.3,0.6,0.6v2.2c0,0.3-0.3,0.6-0.6,0.6h-34c-0.3,0-0.6-0.3-0.6-0.6v-2.2
				C18.1-20.5,18.4-20.7,18.7-20.7z"/>
			<path class="st5" d="M18.7-14.1h120.9c0.3,0,0.6,0.3,0.6,0.6v0.5c0,0.3-0.3,0.6-0.6,0.6H18.7c-0.3,0-0.6-0.3-0.6-0.6v-0.5
				C18.1-13.8,18.4-14.1,18.7-14.1z"/>
			<path class="st5" d="M18.7-10.8h110.8c0.3,0,0.6,0.3,0.6,0.6v0.5c0,0.3-0.3,0.6-0.6,0.6H18.7c-0.3,0-0.6-0.3-0.6-0.6v-0.5
				C18.1-10.5,18.4-10.8,18.7-10.8z"/>
			<path class="st5" d="M18.7-7.5h100.6c0.3,0,0.6,0.3,0.6,0.6v0.5c0,0.3-0.3,0.6-0.6,0.6H18.7c-0.3,0-0.6-0.3-0.6-0.6v-0.5
				C18.1-7.2,18.4-7.5,18.7-7.5z"/>
		</g>
	</g>
	<g transform="translate(505.709 317.864)">
		
			<linearGradient id="SVGID_5_" gradientUnits="userSpaceOnUse" x1="-775.6357" y1="437.2248" x2="-775.0833" y2="435.9447" gradientTransform="matrix(20.552 0 0 -20.542 15965.6514 8947.6094)">
			<stop  offset="0" style="stop-color:#FAD961"/>
			<stop  offset="1" style="stop-color:#FF52C1"/>
		</linearGradient>
		<ellipse class="st14" cx="30.7" cy="-20.2" rx="9.2" ry="9.3"/>
		<g transform="translate(31.512 2.054)">
			<path class="st5" d="M18.7-29.7h34c0.3,0,0.6,0.3,0.6,0.6v2.2c0,0.3-0.3,0.6-0.6,0.6h-34c-0.3,0-0.6-0.3-0.6-0.6v-2.2
				C18.1-29.4,18.4-29.7,18.7-29.7z"/>
			<path class="st5" d="M18.7-23.1h120.9c0.3,0,0.6,0.3,0.6,0.6v0.5c0,0.3-0.3,0.6-0.6,0.6H18.7c-0.3,0-0.6-0.3-0.6-0.6v-0.5
				C18.1-22.8,18.4-23.1,18.7-23.1z"/>
			<path class="st5" d="M18.7-19.7h110.8c0.3,0,0.6,0.3,0.6,0.6v0.5c0,0.3-0.3,0.6-0.6,0.6H18.7c-0.3,0-0.6-0.3-0.6-0.6v-0.5
				C18.1-19.5,18.4-19.7,18.7-19.7z"/>
			<path class="st5" d="M18.7-16.4h100.6c0.3,0,0.6,0.3,0.6,0.6v0.5c0,0.3-0.3,0.6-0.6,0.6H18.7c-0.3,0-0.6-0.3-0.6-0.6v-0.5
				C18.1-16.2,18.4-16.4,18.7-16.4z"/>
		</g>
	</g>
	<g transform="translate(505.709 254.87)">
		<g transform="translate(31.512 2.054)">
			<path class="st5" d="M18.7-23.7h34c0.3,0,0.6,0.3,0.6,0.6v2.2c0,0.3-0.3,0.6-0.6,0.6h-34c-0.3,0-0.6-0.3-0.6-0.6v-2.2
				C18.1-23.4,18.4-23.7,18.7-23.7z"/>
			<path class="st5" d="M18.7-17.1h120.9c0.3,0,0.6,0.3,0.6,0.6v0.5c0,0.3-0.3,0.6-0.6,0.6H18.7c-0.3,0-0.6-0.3-0.6-0.6v-0.5
				C18.1-16.8,18.4-17.1,18.7-17.1z"/>
			<path class="st5" d="M18.7-13.8h110.8c0.3,0,0.6,0.3,0.6,0.6v0.5c0,0.3-0.3,0.6-0.6,0.6H18.7c-0.3,0-0.6-0.3-0.6-0.6v-0.5
				C18.1-13.5,18.4-13.8,18.7-13.8z"/>
			<path class="st5" d="M18.7-10.5h100.6c0.3,0,0.6,0.3,0.6,0.6v0.5c0,0.3-0.3,0.6-0.6,0.6H18.7c-0.3,0-0.6-0.3-0.6-0.6v-0.5
				C18.1-10.2,18.4-10.5,18.7-10.5z"/>
		</g>
		
			<linearGradient id="SVGID_6_" gradientUnits="userSpaceOnUse" x1="-775.3481" y1="499.7143" x2="-775.3481" y2="498.8091" gradientTransform="matrix(20.552 0 0 -20.542 15965.6514 10241.6328)">
			<stop  offset="0" style="stop-color:#00C7FA"/>
			<stop  offset="1" style="stop-color:#007DFA"/>
		</linearGradient>
		<ellipse class="st15" cx="30.7" cy="-14.2" rx="9.2" ry="9.3"/>
	</g>
	<g transform="translate(505.709 349.361)">
		<g transform="translate(31.512 2.054)">
			<path class="st5" d="M18.7-32.7h34c0.3,0,0.6,0.3,0.6,0.6v2.2c0,0.3-0.3,0.6-0.6,0.6h-34c-0.3,0-0.6-0.3-0.6-0.6v-2.2
				C18.1-32.4,18.4-32.7,18.7-32.7z"/>
			<path class="st5" d="M18.7-26h120.9c0.3,0,0.6,0.3,0.6,0.6v0.5c0,0.3-0.3,0.6-0.6,0.6H18.7c-0.3,0-0.6-0.3-0.6-0.6v-0.5
				C18.1-25.8,18.4-26,18.7-26z"/>
			<path class="st5" d="M18.7-22.7h110.8c0.3,0,0.6,0.3,0.6,0.6v0.5c0,0.3-0.3,0.6-0.6,0.6H18.7c-0.3,0-0.6-0.3-0.6-0.6v-0.5
				C18.1-22.5,18.4-22.7,18.7-22.7z"/>
			<path class="st5" d="M18.7-19.4h100.6c0.3,0,0.6,0.3,0.6,0.6v0.5c0,0.3-0.3,0.6-0.6,0.6H18.7c-0.3,0-0.6-0.3-0.6-0.6v-0.5
				C18.1-19.2,18.4-19.4,18.7-19.4z"/>
		</g>
		
			<linearGradient id="SVGID_7_" gradientUnits="userSpaceOnUse" x1="-775.3481" y1="405.6594" x2="-775.3481" y2="404.7542" gradientTransform="matrix(20.552 0 0 -20.542 15965.6514 8300.5986)">
			<stop  offset="0" style="stop-color:#00C7FA"/>
			<stop  offset="1" style="stop-color:#007DFA"/>
		</linearGradient>
		<ellipse class="st16" cx="30.7" cy="-23.2" rx="9.2" ry="9.3"/>
	</g>
	<g transform="translate(505.709 286.367)">
		<g transform="translate(31.512 2.054)">
			<path class="st5" d="M18.7-26.7h34c0.3,0,0.6,0.3,0.6,0.6v2.2c0,0.3-0.3,0.6-0.6,0.6h-34c-0.3,0-0.6-0.3-0.6-0.6v-2.2
				C18.1-26.4,18.4-26.7,18.7-26.7z"/>
			<path class="st5" d="M18.7-20.1h120.9c0.3,0,0.6,0.3,0.6,0.6v0.5c0,0.3-0.3,0.6-0.6,0.6H18.7c-0.3,0-0.6-0.3-0.6-0.6v-0.5
				C18.1-19.8,18.4-20.1,18.7-20.1z"/>
			<path class="st5" d="M18.7-16.8h110.8c0.3,0,0.6,0.3,0.6,0.6v0.5c0,0.3-0.3,0.6-0.6,0.6H18.7c-0.3,0-0.6-0.3-0.6-0.6v-0.5
				C18.1-16.5,18.4-16.8,18.7-16.8z"/>
			<path class="st5" d="M18.7-13.5h100.6c0.3,0,0.6,0.3,0.6,0.6v0.5c0,0.3-0.3,0.6-0.6,0.6H18.7c-0.3,0-0.6-0.3-0.6-0.6v-0.5
				C18.1-13.2,18.4-13.5,18.7-13.5z"/>
		</g>
		
			<linearGradient id="SVGID_8_" gradientUnits="userSpaceOnUse" x1="-775.5827" y1="468.3363" x2="-775.0305" y2="467.333" gradientTransform="matrix(20.552 0 0 -20.542 15965.6514 9594.6211)">
			<stop  offset="0" style="stop-color:#FF52C1"/>
			<stop  offset="1" style="stop-color:#9952FF"/>
		</linearGradient>
		<ellipse class="st17" cx="30.7" cy="-17.2" rx="9.2" ry="9.3"/>
	</g>
	<g transform="translate(505.709 380.858)">
		<g transform="translate(31.512 2.054)">
			<path class="st5" d="M18.7-35.6h34c0.3,0,0.6,0.3,0.6,0.6v2.2c0,0.3-0.3,0.6-0.6,0.6h-34c-0.3,0-0.6-0.3-0.6-0.6v-2.2
				C18.1-35.4,18.4-35.6,18.7-35.6z"/>
			<path class="st5" d="M18.7-29h120.9c0.3,0,0.6,0.3,0.6,0.6v0.5c0,0.3-0.3,0.6-0.6,0.6H18.7c-0.3,0-0.6-0.3-0.6-0.6v-0.5
				C18.1-28.8,18.4-29,18.7-29z"/>
			<path class="st5" d="M18.7-25.7h110.8c0.3,0,0.6,0.3,0.6,0.6v0.5c0,0.3-0.3,0.6-0.6,0.6H18.7c-0.3,0-0.6-0.3-0.6-0.6v-0.5
				C18.1-25.5,18.4-25.7,18.7-25.7z"/>
			<path class="st5" d="M18.7-22.4h100.6c0.3,0,0.6,0.3,0.6,0.6v0.5c0,0.3-0.3,0.6-0.6,0.6H18.7c-0.3,0-0.6-0.3-0.6-0.6v-0.5
				C18.1-22.2,18.4-22.4,18.7-22.4z"/>
		</g>
		
			<linearGradient id="SVGID_9_" gradientUnits="userSpaceOnUse" x1="-775.5827" y1="374.2814" x2="-775.0305" y2="373.2781" gradientTransform="matrix(20.552 0 0 -20.542 15965.6514 7653.5869)">
			<stop  offset="0" style="stop-color:#FF52C1"/>
			<stop  offset="1" style="stop-color:#9952FF"/>
		</linearGradient>
		<ellipse class="st18" cx="30.7" cy="-26.1" rx="9.2" ry="9.3"/>
	</g>
	<g transform="translate(505.709 412.356)">
		
			<linearGradient id="SVGID_10_" gradientUnits="userSpaceOnUse" x1="-775.6357" y1="343.1689" x2="-775.0833" y2="341.8889" gradientTransform="matrix(20.552 0 0 -20.542 15965.6514 7006.5552)">
			<stop  offset="0" style="stop-color:#FAD961"/>
			<stop  offset="1" style="stop-color:#FF52C1"/>
		</linearGradient>
		<ellipse class="st19" cx="30.7" cy="-29.1" rx="9.2" ry="9.3"/>
		<g transform="translate(31.512 2.054)">
			<path class="st5" d="M18.7-38.6h34c0.3,0,0.6,0.3,0.6,0.6v2.2c0,0.3-0.3,0.6-0.6,0.6h-34c-0.3,0-0.6-0.3-0.6-0.6v-2.2
				C18.1-38.4,18.4-38.6,18.7-38.6z"/>
			<path class="st5" d="M18.7-32h120.9c0.3,0,0.6,0.3,0.6,0.6v0.5c0,0.3-0.3,0.6-0.6,0.6H18.7c-0.3,0-0.6-0.3-0.6-0.6v-0.5
				C18.1-31.8,18.4-32,18.7-32z"/>
			<path class="st5" d="M18.7-28.7h110.8c0.3,0,0.6,0.3,0.6,0.6v0.5c0,0.3-0.3,0.6-0.6,0.6H18.7c-0.3,0-0.6-0.3-0.6-0.6v-0.5
				C18.1-28.5,18.4-28.7,18.7-28.7z"/>
			<path class="st5" d="M18.7-25.4h100.6c0.3,0,0.6,0.3,0.6,0.6v0.5c0,0.3-0.3,0.6-0.6,0.6H18.7c-0.3,0-0.6-0.3-0.6-0.6v-0.5
				C18.1-25.1,18.4-25.4,18.7-25.4z"/>
		</g>
	</g>
	<g transform="translate(505.709 443.853)">
		<g transform="translate(31.512 2.054)">
			<path class="st5" d="M18.7-41.6h34c0.3,0,0.6,0.3,0.6,0.6v2.2c0,0.3-0.3,0.6-0.6,0.6h-34c-0.3,0-0.6-0.3-0.6-0.6V-41
				C18.1-41.4,18.4-41.6,18.7-41.6z"/>
			<path class="st5" d="M18.7-35h120.9c0.3,0,0.6,0.3,0.6,0.6v0.5c0,0.3-0.3,0.6-0.6,0.6H18.7c-0.3,0-0.6-0.3-0.6-0.6v-0.5
				C18.1-34.7,18.4-35,18.7-35z"/>
			<path class="st5" d="M18.7-31.7h110.8c0.3,0,0.6,0.3,0.6,0.6v0.5c0,0.3-0.3,0.6-0.6,0.6H18.7c-0.3,0-0.6-0.3-0.6-0.6v-0.5
				C18.1-31.4,18.4-31.7,18.7-31.7z"/>
			<path class="st5" d="M18.7-28.4h100.6c0.3,0,0.6,0.3,0.6,0.6v0.5c0,0.3-0.3,0.6-0.6,0.6H18.7c-0.3,0-0.6-0.3-0.6-0.6v-0.5
				C18.1-28.1,18.4-28.4,18.7-28.4z"/>
		</g>
		
			<linearGradient id="SVGID_11_" gradientUnits="userSpaceOnUse" x1="-775.3481" y1="311.6035" x2="-775.3481" y2="310.6983" gradientTransform="matrix(20.552 0 0 -20.542 15965.6514 6359.5435)">
			<stop  offset="0" style="stop-color:#00C7FA"/>
			<stop  offset="1" style="stop-color:#007DFA"/>
		</linearGradient>
		<ellipse class="st20" cx="30.7" cy="-32.1" rx="9.2" ry="9.3"/>
	</g>
</g>
</svg>
